<svg width="47" height="59" viewBox="0 0 47 59" fill="none" xmlns="http://www.w3.org/2000/svg">
<g clip-path="url(#clip0_6_26968)">
<path d="M38.3261 25.0605L32.2468 29.9098L31.0408 30.8786L23.3095 37.0433L15.4901 30.84L14.2732 29.8713L8.21036 25.0605H0.258789V58.8897H8.2434V35.348L12.858 38.7882L14.3007 39.8615L21.3932 45.1456H25.2313L32.1642 39.9771L33.6014 38.9093L38.3812 35.348V58.8897H46.3603V25.0605H38.3261Z" fill="#212121"/>
<path d="M23.2887 24.8887L23.0395 25.4242L22.7903 24.8887L13.3652 29.345V59.0919H14.7992V30.2653L23.0395 26.3676L31.2816 30.2653V59.0919H32.7137V29.345L23.2887 24.8887Z" fill="#999999"/>
<path d="M22.2806 25.7002C21.8681 23.7779 19.3899 23.0864 17.2047 22.4764C16.443 22.2636 15.7234 22.0614 15.1214 21.8149C12.6502 20.8059 9.849 19.6621 8.27641 16.9171C7.25142 15.1278 7.25318 12.8084 8.27817 11.0102C9.20312 9.39123 10.7652 8.48863 12.6133 8.5897C16.0025 8.75994 18.7317 11.7107 20.9537 17.6087C21.568 19.2401 22.1454 20.9017 22.6684 22.5455C22.7597 22.831 22.9001 23.1449 23.044 23.4694C23.3389 24.1344 23.6425 24.8242 23.6934 25.4892L22.2788 25.6984L22.2806 25.7002ZM12.3553 10.0314C10.7336 10.0314 9.88411 11.0989 9.5208 11.7355C8.74503 13.0921 8.74328 14.8423 9.51729 16.1918C10.8442 18.5077 13.2926 19.5061 15.6602 20.4743C16.185 20.6889 16.866 20.8786 17.5874 21.0808C18.7282 21.3982 19.9989 21.7546 21.0906 22.3221C20.6325 20.9212 20.1376 19.5132 19.6163 18.1247C17.6189 12.8208 15.3057 10.175 12.5431 10.0349L12.3571 10.0296L12.3553 10.0314Z" fill="#999999"/>
<path d="M24.0625 25.6997L22.6478 25.4904C22.6987 24.8237 23.0041 24.1338 23.299 23.4671C23.4411 23.1443 23.5816 22.8322 23.6728 22.5467C24.2029 20.8869 24.7803 19.2254 25.3876 17.6099C27.6096 11.7119 30.3388 8.76118 33.7279 8.59094C35.5673 8.49518 37.1399 9.39247 38.0649 11.015C39.0898 12.8131 39.0898 15.1291 38.0649 16.9183C36.4887 19.6669 33.6893 20.8089 31.2199 21.8161C30.6179 22.0626 29.8983 22.263 29.1365 22.4758C26.9514 23.0876 24.4732 23.7792 24.0589 25.7014L24.0625 25.6997ZM33.9859 10.0309L33.7999 10.0362C31.0391 10.1745 28.7258 12.822 26.7285 18.1259C26.2107 19.5002 25.7158 20.91 25.2542 22.3215C26.3459 21.7541 27.6166 21.3977 28.7574 21.0802C29.4788 20.8781 30.1598 20.6883 30.6845 20.4738C33.0505 19.5073 35.4971 18.509 36.8257 16.1913C37.5997 14.8436 37.5997 13.0933 36.824 11.7368C36.4624 11.0984 35.6094 10.0309 33.9859 10.0309Z" fill="#999999"/>
</g>
<defs>
<clipPath id="clip0_6_26968">
<rect width="46.3603" height="58.8901" fill="white"/>
</clipPath>
</defs>
</svg>
