<svg width="30" height="30" viewBox="0 0 30 30" fill="none" xmlns="http://www.w3.org/2000/svg">
<g clip-path="url(#clip0_3615_39754)">
<path fill-rule="evenodd" clip-rule="evenodd" d="M19.0302 0.955405C18.888 0.802768 18.7165 0.680342 18.5259 0.59543C18.3353 0.510518 18.1296 0.46486 17.921 0.461179C17.7124 0.457499 17.5052 0.495871 17.3117 0.574008C17.1183 0.652144 16.9426 0.768443 16.795 0.915968C16.6475 1.06349 16.5312 1.23922 16.4531 1.43267C16.3749 1.62611 16.3366 1.83332 16.3403 2.04192C16.3439 2.25051 16.3896 2.45624 16.4745 2.64681C16.5594 2.83738 16.6818 3.00889 16.8345 3.15112L18.3259 4.64255H13.7895C13.5148 4.64255 13.2514 4.75167 13.0571 4.9459C12.8629 5.14014 12.7538 5.40357 12.7538 5.67826V16.0354C12.7538 16.3101 12.8629 16.5735 13.0571 16.7678C13.2514 16.962 13.5148 17.0711 13.7895 17.0711H19.7448V7.74969C19.7448 7.40633 19.8812 7.07703 20.124 6.83424C20.3668 6.59145 20.6961 6.45505 21.0395 6.45505C21.3828 6.45505 21.7121 6.59145 21.9549 6.83424C22.1977 7.07703 22.3341 7.40633 22.3341 7.74969V17.0711H28.2895C28.5642 17.0711 28.8276 16.962 29.0218 16.7678C29.2161 16.5735 29.3252 16.3101 29.3252 16.0354V5.67826C29.3252 5.40357 29.2161 5.14014 29.0218 4.9459C28.8276 4.75167 28.5642 4.64255 28.2895 4.64255H23.7531L25.2445 3.15112C25.5189 2.85661 25.6683 2.46709 25.6612 2.06461C25.6541 1.66213 25.4911 1.27812 25.2064 0.993474C24.9218 0.708833 24.5378 0.545786 24.1353 0.538685C23.7328 0.531584 23.3433 0.680982 23.0488 0.955405L21.0395 2.96469L19.0302 0.955405ZM4.14284 14.9997H0.325195V23.2854L4.11177 27.072C4.88124 27.8417 5.79481 28.4522 6.80029 28.8688C7.80578 29.2854 8.88348 29.4997 9.97184 29.4997H22.0752C22.8993 29.4997 23.6896 29.1723 24.2723 28.5896C24.855 28.0069 25.1823 27.2166 25.1823 26.3925C25.1823 25.5685 24.855 24.7782 24.2723 24.1955C23.6896 23.6128 22.8993 23.2854 22.0752 23.2854H16.3228C16.1075 24.0116 15.7071 24.6693 15.161 25.1941C14.6149 25.719 13.9417 26.0929 13.2076 26.2792C12.4734 26.4655 11.7035 26.4578 10.9732 26.2569C10.2429 26.056 9.57732 25.6687 9.04177 25.1331L6.0382 22.1295C5.91796 22.0093 5.82259 21.8666 5.75751 21.7095C5.69244 21.5524 5.65895 21.384 5.65895 21.214C5.65895 21.0439 5.69244 20.8756 5.75751 20.7185C5.82259 20.5614 5.91796 20.4186 6.0382 20.2984C6.15843 20.1782 6.30117 20.0828 6.45826 20.0177C6.61536 19.9527 6.78373 19.9192 6.95377 19.9192C7.1238 19.9192 7.29218 19.9527 7.44927 20.0177C7.60636 20.0828 7.7491 20.1782 7.86934 20.2984L10.8729 23.302C11.1896 23.617 11.6131 23.8015 12.0595 23.819C12.5058 23.8364 12.9424 23.6856 13.2828 23.3963C13.6232 23.107 13.8424 22.7004 13.8972 22.2571C13.9519 21.8137 13.838 21.366 13.5782 21.0027L10.0029 17.4274C9.23344 16.6577 8.31987 16.0471 7.31438 15.6306C6.3089 15.214 5.23119 14.9997 4.14284 14.9997Z" fill="black"/>
</g>
<defs>
<clipPath id="clip0_3615_39754">
<rect width="29" height="29" fill="white" transform="translate(0.325195 0.5)"/>
</clipPath>
</defs>
</svg>
